<?xml version='1.0' encoding='utf-8'?>
<svg xmlns="http://www.w3.org/2000/svg" version="2.0">
  <polyline points="49.53,8.453172495550525 54.79,8.32823934157614 59.84,8.193617755847892 78.214,7.716952265172745 82.02600000000001,7.081361861726809 86.48500000000001,7.624149293142475 89.82100000000001,7.528077529838826 93.16300000000001,7.519145786440038 96.467,7.723365252561811 99.357,7.468477413876555 106.69299999999998,7.681879963978064 116.66999999999999,8.206286049671592 120.80299999999998,7.061538399378295 129.301,6.591927702265501 137.73799999999997,6.443396471573235 143.04899999999995,6.550428527493075 150.82199999999997,6.592035487156274 159.84899999999996,6.597938939411954 163.90599999999995,6.591947419634878 167.92399999999998,6.569554063151688 176.063,6.901021909548541 183.71399999999997,6.907031965463581 191.20799999999997,6.901127176365165 200.22799999999998,6.59190025101333 221.416,16.09981944295866 227.433,7.250987578158066 232.599,7.123830388948045 236.8,6.566565226552412 248.54200000000003,8.22907584297801 258.535,4.387522160342748 261.94800000000004,4.229287819504837 265.09200000000004,5.90269495195288 278.171,5.025282706578933 283.59200000000004,5.870522520119699 288.491,5.825269531967956 297.943,6.498049202765525 311.589,6.343135082743519 317.859,6.677285491532093 321.356,6.907305380218139 331.35299999999995,6.995855439596941 341.18899999999996,7.291739317790591 359.269,6.456860988930799 366.757,7.331136946073606 373.72299999999996,7.863938102832309 380.048,8.19203047649076 382.59499999999997,8.003753666351459 386.00399999999996,8.32513214841861 391.412,7.908009654447349 400.962,7.81001925586291 405.063,7.561127714222371 408.31899999999996,7.318090172973449 429.70099999999996,9.265134446950558 429,20 49,20 49,8" stroke="blue" strokeWith="5" fill="#FF0000" />
</svg>