<?xml version='1.0' encoding='utf-8'?>
<svg xmlns="http://www.w3.org/2000/svg" version="2.0">
  <polyline points="49.553,8.5 58.23499999999999,8.2 76.511,7.7 83.281,7.6 89.211,7.5 94.86099999999999,7.5 112.02099999999999,7.3 116.13099999999997,7.1 132.97599999999997,6.4 138.266,6.6 155.016,6.6 162.649,6.6 177.94899999999998,6.9 221.188,7.3 228.618,6.6 250.233,4.4 256.048,5.9 269.132,5.0 278.838,5.8 301.81800000000004,6.3 310.788,6.9 329.79100000000005,7.3 347.809,6.5 369.336,8.0 375.759,7.9 385.25100000000003,7.8 391.25100000000003,7.3 412.654,9.2 412,15 49,15 49,8" stroke="blue" strokeWith="5" fill="#FF0000" />
</svg>