<?xml version="1.0" encoding="utf-8"?><svg width="auto" height="2320" style="overflow:visible " version="1.1" xmlns="http://www.w3.org/2000/svg"><rect x="20" y="20" width="200" height="40" style="fill:white;stroke:black;stroke-width:1" /><text x="30" y="30" font-size="10" style="fill:blue">circuito</text><rect x="240" y="20" width="200" height="40" style="fill:white;stroke:black;stroke-width:1" /><text x="250" y="30" font-size="10" style="fill:blue">nombre</text><path d="M220 40 C240 40 220 40 240 40" style="fill:transparent;stroke:black" /><rect x="306" y="20" width="137" height="40" style="fill:green;stroke:black;stroke-width:1" /><text x="316" y="30" font-size="8" style="fill:white">Pertamina Mandalika Circuit</text><rect x="240" y="70" width="200" height="40" style="fill:white;stroke:black;stroke-width:1" /><text x="250" y="80" font-size="10" style="fill:blue">longitudTotal</text><path d="M220 40 C240 40 220 90 240 90" style="fill:transparent;stroke:black" /><text x="250" y="90" font-size="8" style="fill:black">unidad: metros</text><rect x="306" y="70" width="137" height="40" style="fill:green;stroke:black;stroke-width:1" /><text x="316" y="80" font-size="8" style="fill:white">4301</text><rect x="240" y="120" width="200" height="40" style="fill:white;stroke:black;stroke-width:1" /><text x="250" y="130" font-size="10" style="fill:blue">anchura</text><path d="M220 40 C240 40 220 140 240 140" style="fill:transparent;stroke:black" /><text x="250" y="140" font-size="8" style="fill:black">unidad: metros</text><rect x="306" y="120" width="137" height="40" style="fill:green;stroke:black;stroke-width:1" /><text x="316" y="130" font-size="8" style="fill:white">15</text><rect x="240" y="170" width="200" height="40" style="fill:white;stroke:black;stroke-width:1" /><text x="250" y="180" font-size="10" style="fill:blue">fecha</text><path d="M220 40 C240 40 220 190 240 190" style="fill:transparent;stroke:black" /><text x="250" y="190" font-size="8" style="fill:black">dia: 05/10/2025</text><text x="250" y="200" font-size="8" style="fill:black">hora: 09:00</text><rect x="240" y="220" width="200" height="40" style="fill:white;stroke:black;stroke-width:1" /><text x="250" y="230" font-size="10" style="fill:blue">vueltas</text><path d="M220 40 C240 40 220 240 240 240" style="fill:transparent;stroke:black" /><rect x="306" y="220" width="137" height="40" style="fill:green;stroke:black;stroke-width:1" /><text x="316" y="230" font-size="8" style="fill:white">27</text><rect x="240" y="270" width="200" height="40" style="fill:white;stroke:black;stroke-width:1" /><text x="250" y="280" font-size="10" style="fill:blue">localidad</text><path d="M220 40 C240 40 220 290 240 290" style="fill:transparent;stroke:black" /><rect x="306" y="270" width="137" height="40" style="fill:green;stroke:black;stroke-width:1" /><text x="316" y="280" font-size="8" style="fill:white">Mandalika</text><rect x="240" y="320" width="200" height="40" style="fill:white;stroke:black;stroke-width:1" /><text x="250" y="330" font-size="10" style="fill:blue">pais</text><path d="M220 40 C240 40 220 340 240 340" style="fill:transparent;stroke:black" /><rect x="306" y="320" width="137" height="40" style="fill:green;stroke:black;stroke-width:1" /><text x="316" y="330" font-size="8" style="fill:white">Indonesia</text><rect x="240" y="370" width="200" height="40" style="fill:white;stroke:black;stroke-width:1" /><text x="250" y="380" font-size="10" style="fill:blue">patrocinador</text><path d="M220 40 C240 40 220 390 240 390" style="fill:transparent;stroke:black" /><rect x="306" y="370" width="137" height="40" style="fill:green;stroke:black;stroke-width:1" /><text x="316" y="380" font-size="8" style="fill:white">Pertamina</text><rect x="240" y="420" width="200" height="40" style="fill:white;stroke:black;stroke-width:1" /><text x="250" y="430" font-size="10" style="fill:blue">referencias</text><path d="M220 40 C240 40 220 440 240 440" style="fill:transparent;stroke:black" /><rect x="460" y="420" width="200" height="40" style="fill:white;stroke:black;stroke-width:1" /><text x="470" y="430" font-size="10" style="fill:blue">referencia</text><path d="M440 440 C460 440 440 440 460 440" style="fill:transparent;stroke:black" /><rect x="526" y="420" width="137" height="40" style="fill:green;stroke:black;stroke-width:1" /><text x="536" y="430" font-size="8" style="fill:white">https://es.wikipedia.org/wiki/Circuito_Urbano_Internacional_de_Mandalika</text><rect x="460" y="470" width="200" height="40" style="fill:white;stroke:black;stroke-width:1" /><text x="470" y="480" font-size="10" style="fill:blue">referencia</text><path d="M440 440 C460 440 440 490 460 490" style="fill:transparent;stroke:black" /><rect x="526" y="470" width="137" height="40" style="fill:green;stroke:black;stroke-width:1" /><text x="536" y="480" font-size="8" style="fill:white">https://www.motogp.com/es/calendar/2025/event/indonesia/c4def1f2-c288-4eab-9461-7acda49e765a?tab=overview</text><rect x="460" y="520" width="200" height="40" style="fill:white;stroke:black;stroke-width:1" /><text x="470" y="530" font-size="10" style="fill:blue">referencia</text><path d="M440 440 C460 440 440 540 460 540" style="fill:transparent;stroke:black" /><rect x="526" y="520" width="137" height="40" style="fill:green;stroke:black;stroke-width:1" /><text x="536" y="530" font-size="8" style="fill:white">https://es.wikipedia.org/wiki/Gran_Premio_de_Indonesia_de_Motociclismo</text><rect x="240" y="620" width="200" height="40" style="fill:white;stroke:black;stroke-width:1" /><text x="250" y="630" font-size="10" style="fill:blue">fotografias</text><path d="M220 40 C240 40 220 640 240 640" style="fill:transparent;stroke:black" /><rect x="460" y="620" width="200" height="40" style="fill:white;stroke:black;stroke-width:1" /><text x="470" y="630" font-size="10" style="fill:blue">fotografia</text><path d="M440 640 C460 640 440 640 460 640" style="fill:transparent;stroke:black" /><rect x="526" y="620" width="137" height="40" style="fill:green;stroke:black;stroke-width:1" /><text x="536" y="630" font-size="8" style="fill:white">../multimedia/mandalika-aereo.jpg</text><rect x="460" y="670" width="200" height="40" style="fill:white;stroke:black;stroke-width:1" /><text x="470" y="680" font-size="10" style="fill:blue">fotografia</text><path d="M440 640 C460 640 440 690 460 690" style="fill:transparent;stroke:black" /><rect x="526" y="670" width="137" height="40" style="fill:green;stroke:black;stroke-width:1" /><text x="536" y="680" font-size="8" style="fill:white">../multimedia/mandalika-salida.png</text><rect x="460" y="720" width="200" height="40" style="fill:white;stroke:black;stroke-width:1" /><text x="470" y="730" font-size="10" style="fill:blue">fotografia</text><path d="M440 640 C460 640 440 740 460 740" style="fill:transparent;stroke:black" /><rect x="526" y="720" width="137" height="40" style="fill:green;stroke:black;stroke-width:1" /><text x="536" y="730" font-size="8" style="fill:white">../multimedia/joan-mir-honda-mandalika.jpg"</text><rect x="240" y="820" width="200" height="40" style="fill:white;stroke:black;stroke-width:1" /><text x="250" y="830" font-size="10" style="fill:blue">videos</text><path d="M220 40 C240 40 220 840 240 840" style="fill:transparent;stroke:black" /><rect x="460" y="820" width="200" height="40" style="fill:white;stroke:black;stroke-width:1" /><text x="470" y="830" font-size="10" style="fill:blue">video</text><path d="M440 840 C460 840 440 840 460 840" style="fill:transparent;stroke:black" /><rect x="526" y="820" width="137" height="40" style="fill:green;stroke:black;stroke-width:1" /><text x="536" y="830" font-size="8" style="fill:white">../multimedia/marquez-mandalika.mp4</text><rect x="460" y="870" width="200" height="40" style="fill:white;stroke:black;stroke-width:1" /><text x="470" y="880" font-size="10" style="fill:blue">video</text><path d="M440 840 C460 840 440 890 460 890" style="fill:transparent;stroke:black" /><rect x="526" y="870" width="137" height="40" style="fill:green;stroke:black;stroke-width:1" /><text x="536" y="880" font-size="8" style="fill:white">../multimedia/munoz-mandalika.mp4</text><rect x="240" y="970" width="200" height="40" style="fill:white;stroke:black;stroke-width:1" /><text x="250" y="980" font-size="10" style="fill:blue">origen</text><path d="M220 40 C240 40 220 990 240 990" style="fill:transparent;stroke:black" /><rect x="460" y="970" width="200" height="40" style="fill:white;stroke:black;stroke-width:1" /><text x="470" y="980" font-size="10" style="fill:blue">punto</text><path d="M440 990 C460 990 440 990 460 990" style="fill:transparent;stroke:black" /><rect x="680" y="970" width="200" height="40" style="fill:white;stroke:black;stroke-width:1" /><text x="690" y="980" font-size="10" style="fill:blue">latitud</text><path d="M660 990 C680 990 660 990 680 990" style="fill:transparent;stroke:black" /><text x="690" y="990" font-size="8" style="fill:black">unidad: grados</text><rect x="746" y="970" width="137" height="40" style="fill:green;stroke:black;stroke-width:1" /><text x="756" y="980" font-size="8" style="fill:white">-8.895737214085928</text><rect x="680" y="1020" width="200" height="40" style="fill:white;stroke:black;stroke-width:1" /><text x="690" y="1030" font-size="10" style="fill:blue">longitud</text><path d="M660 990 C680 990 660 1040 680 1040" style="fill:transparent;stroke:black" /><text x="690" y="1040" font-size="8" style="fill:black">unidad: grados</text><rect x="746" y="1020" width="137" height="40" style="fill:green;stroke:black;stroke-width:1" /><text x="756" y="1030" font-size="8" style="fill:white">116.3035149881376</text><rect x="680" y="1070" width="200" height="40" style="fill:white;stroke:black;stroke-width:1" /><text x="690" y="1080" font-size="10" style="fill:blue">altitud</text><path d="M660 990 C680 990 660 1090 680 1090" style="fill:transparent;stroke:black" /><text x="690" y="1090" font-size="8" style="fill:black">unidad: metros</text><rect x="746" y="1070" width="137" height="40" style="fill:green;stroke:black;stroke-width:1" /><text x="756" y="1080" font-size="8" style="fill:white">9.2</text><rect x="240" y="1220" width="200" height="40" style="fill:white;stroke:black;stroke-width:1" /><text x="250" y="1230" font-size="10" style="fill:blue">tramos</text><path d="M220 40 C240 40 220 1240 240 1240" style="fill:transparent;stroke:black" /><rect x="460" y="1220" width="200" height="40" style="fill:white;stroke:black;stroke-width:1" /><text x="470" y="1230" font-size="10" style="fill:blue">tramo</text><path d="M440 1240 C460 1240 440 1240 460 1240" style="fill:transparent;stroke:black" /><text x="470" y="1240" font-size="8" style="fill:black">name: 1</text><text x="470" y="1250" font-size="8" style="fill:black">distancia: 300</text><text x="470" y="1260" font-size="8" style="fill:black">unidad: metros</text><text x="470" y="1270" font-size="8" style="fill:black">sector: 1</text><rect x="680" y="1220" width="200" height="40" style="fill:white;stroke:black;stroke-width:1" /><text x="690" y="1230" font-size="10" style="fill:blue">punto</text><path d="M660 1240 C680 1240 660 1240 680 1240" style="fill:transparent;stroke:black" /><rect x="900" y="1220" width="200" height="40" style="fill:white;stroke:black;stroke-width:1" /><text x="910" y="1230" font-size="10" style="fill:blue">latitud</text><path d="M880 1240 C900 1240 880 1240 900 1240" style="fill:transparent;stroke:black" /><text x="910" y="1240" font-size="8" style="fill:black">unidad: grados</text><rect x="966" y="1220" width="137" height="40" style="fill:green;stroke:black;stroke-width:1" /><text x="976" y="1230" font-size="8" style="fill:white">-8.894507664899935</text><rect x="900" y="1270" width="200" height="40" style="fill:white;stroke:black;stroke-width:1" /><text x="910" y="1280" font-size="10" style="fill:blue">longitud</text><path d="M880 1240 C900 1240 880 1290 900 1290" style="fill:transparent;stroke:black" /><text x="910" y="1290" font-size="8" style="fill:black">unidad: grados</text><rect x="966" y="1270" width="137" height="40" style="fill:green;stroke:black;stroke-width:1" /><text x="976" y="1280" font-size="8" style="fill:white">116.30796447573758</text><rect x="900" y="1320" width="200" height="40" style="fill:white;stroke:black;stroke-width:1" /><text x="910" y="1330" font-size="10" style="fill:blue">altitud</text><path d="M880 1240 C900 1240 880 1340 900 1340" style="fill:transparent;stroke:black" /><text x="910" y="1340" font-size="8" style="fill:black">unidad: metros</text><rect x="966" y="1320" width="137" height="40" style="fill:green;stroke:black;stroke-width:1" /><text x="976" y="1330" font-size="8" style="fill:white">9</text><rect x="460" y="1470" width="200" height="40" style="fill:white;stroke:black;stroke-width:1" /><text x="470" y="1480" font-size="10" style="fill:blue">tramo</text><path d="M440 1240 C460 1240 440 1490 460 1490" style="fill:transparent;stroke:black" /><text x="470" y="1490" font-size="8" style="fill:black">name: 2</text><text x="470" y="1500" font-size="8" style="fill:black">distancia: 15</text><text x="470" y="1510" font-size="8" style="fill:black">unidad: metros</text><text x="470" y="1520" font-size="8" style="fill:black">sector: 1</text><rect x="680" y="1470" width="200" height="40" style="fill:white;stroke:black;stroke-width:1" /><text x="690" y="1480" font-size="10" style="fill:blue">punto</text><path d="M660 1490 C680 1490 660 1490 680 1490" style="fill:transparent;stroke:black" /><rect x="900" y="1470" width="200" height="40" style="fill:white;stroke:black;stroke-width:1" /><text x="910" y="1480" font-size="10" style="fill:blue">latitud</text><path d="M880 1490 C900 1490 880 1490 900 1490" style="fill:transparent;stroke:black" /><text x="910" y="1490" font-size="8" style="fill:black">unidad: grados</text><rect x="966" y="1470" width="137" height="40" style="fill:green;stroke:black;stroke-width:1" /><text x="976" y="1480" font-size="8" style="fill:white">-8.894928697611606</text><rect x="900" y="1520" width="200" height="40" style="fill:white;stroke:black;stroke-width:1" /><text x="910" y="1530" font-size="10" style="fill:blue">longitud</text><path d="M880 1490 C900 1490 880 1540 900 1540" style="fill:transparent;stroke:black" /><text x="910" y="1540" font-size="8" style="fill:black">unidad: grados</text><rect x="966" y="1520" width="137" height="40" style="fill:green;stroke:black;stroke-width:1" /><text x="976" y="1530" font-size="8" style="fill:white">116.30852928412536</text><rect x="900" y="1570" width="200" height="40" style="fill:white;stroke:black;stroke-width:1" /><text x="910" y="1580" font-size="10" style="fill:blue">altitud</text><path d="M880 1490 C900 1490 880 1590 900 1590" style="fill:transparent;stroke:black" /><text x="910" y="1590" font-size="8" style="fill:black">unidad: metros</text><rect x="966" y="1570" width="137" height="40" style="fill:green;stroke:black;stroke-width:1" /><text x="976" y="1580" font-size="8" style="fill:white">9</text><rect x="460" y="1720" width="200" height="40" style="fill:white;stroke:black;stroke-width:1" /><text x="470" y="1730" font-size="10" style="fill:blue">tramo</text><path d="M440 1240 C460 1240 440 1740 460 1740" style="fill:transparent;stroke:black" /><text x="470" y="1740" font-size="8" style="fill:black">name: 3</text><text x="470" y="1750" font-size="8" style="fill:black">distancia: 130</text><text x="470" y="1760" font-size="8" style="fill:black">unidad: metros</text><text x="470" y="1770" font-size="8" style="fill:black">sector: 1</text><rect x="680" y="1720" width="200" height="40" style="fill:white;stroke:black;stroke-width:1" /><text x="690" y="1730" font-size="10" style="fill:blue">punto</text><path d="M660 1740 C680 1740 660 1740 680 1740" style="fill:transparent;stroke:black" /><rect x="900" y="1720" width="200" height="40" style="fill:white;stroke:black;stroke-width:1" /><text x="910" y="1730" font-size="10" style="fill:blue">latitud</text><path d="M880 1740 C900 1740 880 1740 900 1740" style="fill:transparent;stroke:black" /><text x="910" y="1740" font-size="8" style="fill:black">unidad: grados</text><rect x="966" y="1720" width="137" height="40" style="fill:green;stroke:black;stroke-width:1" /><text x="976" y="1730" font-size="8" style="fill:white">-8.896742165402582</text><rect x="900" y="1770" width="200" height="40" style="fill:white;stroke:black;stroke-width:1" /><text x="910" y="1780" font-size="10" style="fill:blue">longitud</text><path d="M880 1740 C900 1740 880 1790 900 1790" style="fill:transparent;stroke:black" /><text x="910" y="1790" font-size="8" style="fill:black">unidad: grados</text><rect x="966" y="1770" width="137" height="40" style="fill:green;stroke:black;stroke-width:1" /><text x="976" y="1780" font-size="8" style="fill:white">116.30855111266189</text><rect x="900" y="1820" width="200" height="40" style="fill:white;stroke:black;stroke-width:1" /><text x="910" y="1830" font-size="10" style="fill:blue">altitud</text><path d="M880 1740 C900 1740 880 1840 900 1840" style="fill:transparent;stroke:black" /><text x="910" y="1840" font-size="8" style="fill:black">unidad: metros</text><rect x="966" y="1820" width="137" height="40" style="fill:green;stroke:black;stroke-width:1" /><text x="976" y="1830" font-size="8" style="fill:white">9</text><rect x="240" y="2020" width="200" height="40" style="fill:white;stroke:black;stroke-width:1" /><text x="250" y="2030" font-size="10" style="fill:blue">vencedor</text><path d="M220 40 C240 40 220 2040 240 2040" style="fill:transparent;stroke:black" /><text x="250" y="2040" font-size="8" style="fill:black">duracion: 41:07.651</text><rect x="306" y="2020" width="137" height="40" style="fill:green;stroke:black;stroke-width:1" /><text x="316" y="2030" font-size="8" style="fill:white">F.Aldeguer</text><rect x="240" y="2070" width="200" height="40" style="fill:white;stroke:black;stroke-width:1" /><text x="250" y="2080" font-size="10" style="fill:blue">clasificacion</text><path d="M220 40 C240 40 220 2090 240 2090" style="fill:transparent;stroke:black" /><rect x="460" y="2070" width="200" height="40" style="fill:white;stroke:black;stroke-width:1" /><text x="470" y="2080" font-size="10" style="fill:blue">piloto</text><path d="M440 2090 C460 2090 440 2090 460 2090" style="fill:transparent;stroke:black" /><text x="470" y="2090" font-size="8" style="fill:black">posicion: 1</text><text x="470" y="2100" font-size="8" style="fill:black">puntos: 545</text><rect x="526" y="2070" width="137" height="40" style="fill:green;stroke:black;stroke-width:1" /><text x="536" y="2080" font-size="8" style="fill:white">Marc Márquez</text><rect x="460" y="2120" width="200" height="40" style="fill:white;stroke:black;stroke-width:1" /><text x="470" y="2130" font-size="10" style="fill:blue">piloto</text><path d="M440 2090 C460 2090 440 2140 460 2140" style="fill:transparent;stroke:black" /><text x="470" y="2140" font-size="8" style="fill:black">posicion: 2</text><text x="470" y="2150" font-size="8" style="fill:black">puntos: 362</text><rect x="526" y="2120" width="137" height="40" style="fill:green;stroke:black;stroke-width:1" /><text x="536" y="2130" font-size="8" style="fill:white">Álex Márquez</text><rect x="460" y="2170" width="200" height="40" style="fill:white;stroke:black;stroke-width:1" /><text x="470" y="2180" font-size="10" style="fill:blue">piloto</text><path d="M440 2090 C460 2090 440 2190 460 2190" style="fill:transparent;stroke:black" /><text x="470" y="2190" font-size="8" style="fill:black">posicion: 3</text><text x="470" y="2200" font-size="8" style="fill:black">puntos: 274</text><rect x="526" y="2170" width="137" height="40" style="fill:green;stroke:black;stroke-width:1" /><text x="536" y="2180" font-size="8" style="fill:white">Pecco Bagnaia</text></svg>