<?xml version='1.0' encoding='utf-8'?>
<svg xmlns="http://www.w3.org/2000/svg" version="1.1">
  <polyline points="24.765,80.82779253114632 27.395,81.70232460896702 29.92,82.64467570906476 39.107,85.98133414379079 41.013000000000005,90.43046696791234 43.24250000000001,86.63095494800268 44.910500000000006,87.30345729112823 46.581500000000005,87.36597949491973 48.2335,85.93644323206732 49.6785,87.7206581028641 53.34649999999999,86.22684025215355 58.334999999999994,82.55599765229886 60.40149999999999,90.56923120435192 64.6505,93.8565060841415 68.86899999999999,94.89622469898737 71.52449999999997,94.14700030754847 75.41099999999999,93.85575158990608 79.92449999999998,93.81442742411633 81.95299999999997,93.85636806255586 83.96199999999999,94.01312155793818 88.0315,91.69284663316023 91.85699999999999,91.65077624175493 95.60399999999998,91.69210976544385 100.11399999999999,93.85669824290669 110.708,27.301263899289392 113.7165,89.24308695289353 116.2995,90.13318727736369 118.4,94.03404341413311 124.27100000000002,82.39646909915392 129.2675,109.28734487760076 130.97400000000002,110.39498526346614 132.54600000000002,98.68113533632983 139.0855,104.82302105394747 141.79600000000002,98.9063423591621 144.2455,99.22311327622431 148.9715,94.51365558064133 155.7945,95.59805442079536 158.9295,93.25900155927535 160.678,91.64886233847302 165.67649999999998,91.02901192282141 170.59449999999998,88.95782477546587 179.6345,94.8019730774844 183.3785,88.68204137748475 186.86149999999998,84.95243328017384 190.024,82.65578666456467 191.29749999999999,83.97372433553979 193.00199999999998,81.72407496106973 195.706,84.64393241886856 200.481,85.32986520895963 202.5315,87.0721060004434 204.15949999999998,88.77336878918587 214.85049999999998,75.14405887134609 214,117.39498526346614 24,117.39498526346614 24,80" stroke="blue" stroke-width="5" fill="#FF0000" />
</svg>